<?xml version="1.0" encoding="UTF-8" standalone="no"?>
<svg
   xmlns:dc="http://purl.org/dc/elements/1.1/"
   xmlns:cc="http://creativecommons.org/ns#"
   xmlns:rdf="http://www.w3.org/1999/02/22-rdf-syntax-ns#"
   xmlns:svg="http://www.w3.org/2000/svg"
   xmlns="http://www.w3.org/2000/svg"
   xmlns:sodipodi="http://sodipodi.sourceforge.net/DTD/sodipodi-0.dtd"
   xmlns:inkscape="http://www.inkscape.org/namespaces/inkscape"
   inkscape:export-ydpi="96"
   inkscape:export-xdpi="96"
   inkscape:export-filename="C:\Users\wmb\Documents\GitHub\PendantsForFluidNC\M5Dial_Scenes\data\run.png"
   sodipodi:docname="Run.svg"
   inkscape:version="1.0 (4035a4fb49, 2020-05-01)"
   id="svg1443"
   version="1.1"
   viewBox="0 0 70 70"
   height="70"
   width="70">
  <defs
     id="defs1437">
    <style
       type="text/css"
       id="style2024">
   
    .fil0 {fill:black}
   
  </style>
  </defs>
  <sodipodi:namedview
     inkscape:window-maximized="0"
     inkscape:window-y="57"
     inkscape:window-x="2345"
     inkscape:window-height="1198"
     inkscape:window-width="1595"
     inkscape:pagecheckerboard="true"
     units="px"
     showgrid="false"
     inkscape:document-rotation="0"
     inkscape:current-layer="layer2"
     inkscape:document-units="px"
     inkscape:cy="78.979633"
     inkscape:cx="-4.4750078"
     inkscape:zoom="3.959798"
     inkscape:pageshadow="2"
     inkscape:pageopacity="0.0"
     borderopacity="1.0"
     bordercolor="#666666"
     pagecolor="#ffffff"
     id="base" />
  <metadata
     id="metadata1440">
    <rdf:RDF>
      <cc:Work
         rdf:about="">
        <dc:format>image/svg+xml</dc:format>
        <dc:type
           rdf:resource="http://purl.org/dc/dcmitype/StillImage" />
        <dc:title></dc:title>
      </cc:Work>
    </rdf:RDF>
  </metadata>
  <g
     style="display:none"
     inkscape:label="Ball"
     id="layer2"
     inkscape:groupmode="layer">
    <circle
       r="35"
       cy="35"
       cx="35"
       id="path2049"
       style="fill:#8d9bff;fill-opacity:1;fill-rule:evenodd;stroke:none;stroke-width:12.3833;stroke-linecap:round" />
  </g>
  <g
     id="layer1"
     inkscape:groupmode="layer"
     inkscape:label="Layer 1">
    <g
       transform="matrix(0.10403536,0,0,0.08279282,-9.1463189,-1.5858906)"
       id="g2047"
       style="clip-rule:evenodd;fill-rule:evenodd;image-rendering:optimizeQuality;shape-rendering:geometricPrecision;text-rendering:geometricPrecision;stroke:#ffffff;stroke-opacity:1">
      <g
         style="stroke:none;stroke-opacity:1;stroke-width:1.01810063;stroke-miterlimit:4;stroke-dasharray:none"
         id="g2030">
        <path
           style="stroke:none;stroke-opacity:1;stroke-width:1.01810063;stroke-miterlimit:4;stroke-dasharray:none;fill:#76ff76;fill-opacity:1"
           class="fil0"
           d="m 350.85,340.54 c -19.08,58.71 -1.92,320.69 -60,320.69 -15.06,7.49 -32.35,16.09 -53.12,30.83 -40.03,28.49 3.34,89.42 43.36,60.94 3.16,-2.24 43.14,-24.73 43.13,-24.75 52.43,-26.06 82.86,-41.3 86.01,-146.74 34.78,36.02 77.45,95.72 79.35,146.99 1.71,49.09 76.42,46.52 74.7,-2.64 -2.81,-76.33 -57.31,-154.67 -110.35,-206.64 l 15.32,-99.05 c 20.56,22.59 50.71,46.63 100.73,72.96 43.56,22.92 78.4,-43.31 34.86,-66.22 -68.78,-36.2 -82.01,-55.33 -118.64,-116.47 8,-53.91 -64.68,-79.51 -140.06,-44.9 -47.04,21.59 -95,61.67 -116.63,94.63 -26.75,41.19 35.96,81.9 62.7,40.72 25.31,-38.94 42.49,-53.99 58.64,-60.35 z M 463.76,82.62 c 44.36,0 80.32,35.96 80.32,80.32 0,44.36 -35.96,80.32 -80.32,80.32 -44.36,0 -80.31,-35.96 -80.31,-80.32 0,-44.36 35.95,-80.32 80.31,-80.32 z"
           id="path2028" />
      </g>
      <text
         style="stroke:#ffffff;stroke-opacity:1"
         x="0"
         y="861.65997"
         fill="#000000"
         font-size="5px"
         font-weight="bold"
         font-family="'Helvetica Neue', Helvetica, Arial-Unicode, Arial, Sans-serif"
         id="text2032">Created by Eko Sofiantono</text>
      <text
         style="stroke:#ffffff;stroke-opacity:1"
         x="0"
         y="866.65997"
         fill="#000000"
         font-size="5px"
         font-weight="bold"
         font-family="'Helvetica Neue', Helvetica, Arial-Unicode, Arial, Sans-serif"
         id="text2034">from the Noun Project</text>
    </g>
  </g>
</svg>
